# xmcd CD database file
#
# Track frame offsets:
#	150
#	13453
#	24945
#	37335
#	48733
#	60500
#	71897
#	82518
#	94111
#	105279
#	116674
#	129570
#	142160
#	154161
#	165779
#	177416
#	191469
#	203581
#	214290
#
# Disc length: 3021 seconds
#
# Revision: 0
# Processed by: cddbd v1.5.2PL0 Copyright (c) Steve Scherf et al.
# Submitted via: CDex 1.51
#
DISCID=080bcb13
DTITLE=Slim Gaillard - Slim Gaillard-1951-1953
DYEAR=2007
DGENRE=Jazz
TTITLE0=For You
TTITLE1=Yip Roc Heresy
TTITLE2=The Hip Cowboy
TTITLE3=Chicken Rhythm
TTITLE4=I Only Have Eyes For You
TTITLE5=As You Are
TTITLE6=St. Louis Blues
TTITLE7=I Know What To Do
TTITLE8=Taxpayers Blues
TTITLE9=Eatin' With The Boogie
TTITLE10=Make It Do
TTITLE11=You Goofed
TTITLE12=I Can't Give You Anything But Love
TTITLE13=This Is My Love
TTITLE14=Gomen Nasai
TTITLE15=Patato Chips
TTITLE16=I'm In The Mood For Love
TTITLE17=Mishugana Mambo
TTITLE18=Go, Man, Go
EXTD=YEAR: 2007
EXTT0=
EXTT1=
EXTT2=
EXTT3=
EXTT4=
EXTT5=
EXTT6=
EXTT7=
EXTT8=
EXTT9=
EXTT10=
EXTT11=
EXTT12=
EXTT13=
EXTT14=
EXTT15=
EXTT16=
EXTT17=
EXTT18=
PLAYORDER=
